<?xml version="1.0" standalone="no"?>
<!DOCTYPE svg PUBLIC "-//W3C//DTD SVG 20010904//EN"
 "http://www.w3.org/TR/2001/REC-SVG-20010904/DTD/svg10.dtd">
<svg version="1.0" xmlns="http://www.w3.org/2000/svg"
 width="600.000000pt" height="247.000000pt" viewBox="0 0 600.000000 247.000000"
 preserveAspectRatio="xMidYMid meet">
<metadata>
Created by potrace 1.13, written by Peter Selinger 2001-2015
</metadata>
<g transform="translate(0.000000,247.000000) scale(0.100000,-0.100000)"
fill="#000000" stroke="none">
<path d="M2735 2309 c-563 -53 -1140 -268 -1532 -571 -35 -26 -67 -48 -73 -48
-5 0 -10 10 -10 23 0 46 -31 128 -63 164 -41 46 -82 63 -155 63 -132 0 -213
-79 -212 -206 0 -43 28 -112 53 -133 31 -25 18 -31 -66 -31 l-84 0 -6 -157
c-7 -169 -22 -308 -37 -348 l-10 -25 -195 0 -195 0 0 -210 0 -210 43 0 c86 0
187 -72 236 -168 26 -51 48 -141 57 -229 l7 -73 531 0 532 0 17 119 c68 467
356 805 810 950 190 60 359 83 617 83 406 0 694 -72 940 -237 270 -180 439
-457 487 -796 l16 -119 532 0 532 0 7 73 c9 88 31 178 57 229 49 96 150 168
237 168 l42 0 0 210 0 210 -195 0 -195 0 -10 24 c-16 42 -30 175 -37 343 l-6
163 -84 0 c-84 0 -97 6 -66 31 25 21 53 90 53 133 1 127 -80 206 -212 206 -73
0 -114 -17 -155 -63 -32 -36 -63 -118 -63 -164 0 -27 -21 -30 -41 -7 -33 40
-328 222 -474 294 -317 155 -617 246 -975 295 -139 19 -516 27 -655 14z m398
-226 l67 -6 0 -233 0 -234 -200 0 -200 0 0 234 0 235 48 4 c87 7 216 7 285 0z
m527 -78 c36 -9 113 -30 173 -47 l107 -31 0 -235 c0 -183 -3 -233 -12 -229
-60 22 -254 81 -302 91 l-61 12 -3 233 c-2 218 -1 232 15 227 10 -3 47 -12 83
-21z m-1240 -213 l0 -228 -97 -23 c-54 -13 -133 -37 -176 -52 -43 -16 -83 -29
-88 -29 -5 0 -9 94 -9 229 l0 229 93 31 c87 29 237 69 265 70 9 1 12 -51 12
-227z m-760 -315 l0 -263 -61 -59 c-33 -33 -69 -75 -80 -92 -20 -32 -23 -33
-90 -33 l-69 0 0 269 0 270 34 26 c58 44 230 145 249 145 16 0 17 -19 17 -263z
m2774 216 c45 -25 107 -64 139 -85 l57 -39 0 -259 0 -260 -52 0 c-49 0 -55 3
-77 35 -13 19 -55 64 -92 100 l-69 65 0 245 c0 135 3 245 7 245 3 0 42 -21 87
-47z"/>
</g>
</svg>
