<?xml version="1.0" encoding="utf-8"?>
<!-- Generator: Adobe Illustrator 14.0.0, SVG Export Plug-In . SVG Version: 6.00 Build 43363)  -->
<!DOCTYPE svg PUBLIC "-//W3C//DTD SVG 1.1//EN" "http://www.w3.org/Graphics/SVG/1.1/DTD/svg11.dtd">
<svg version="1.1" id="Layer_3" xmlns="http://www.w3.org/2000/svg" xmlns:xlink="http://www.w3.org/1999/xlink" x="0px" y="0px"
	 width="40.235px" height="39.717px" viewBox="0 0 40.235 39.717" enable-background="new 0 0 40.235 39.717" xml:space="preserve">
<path d="M20.137,1.391c-0.01,0.725-0.797,4.155-1.344,5.766c-0.242,0.712-0.314,0.862-0.547,1.391
	c-0.172,0.391-0.613,0.356-1.182,0.454c-1.796,0.309-3.021,0.702-3.021,0.702c-2.242,0.57-3.265,0.858-3.594,1
	c-0.185,0.079-0.313,0.594-0.313,0.594l-0.412,3.168c-0.173,2.105-2.044,3.649-3.268,4.232c-0.675,0.321-2.081,0.25-2.464,0.107
	c-0.945-0.353-1.605-1.098-2.061-1.886c-0.739-1.278-0.939-2.668-0.939-2.668s-0.198,1.477,0.22,3.292
	c0.303,1.316,0.93,2.809,2.19,4.047c0,0,2.985,2.367,3.092,8.26c0,0,0.601,4.382,0.333,8.165c0,0,5.29,1.489,6.683-0.046
	c0.083-0.092,0.422-0.375,1.269-1.197c0.307-0.271,0.603-0.629,1.105-1.307c0,0-0.928-5.654-1.459-9.102
	c-0.054-0.348-0.518-1.275-1.065-1.776c-1.066-0.977-2.806-2.692-3.797-4.321c0,0-0.791-1.402,1.446-1.621
	c0.521-0.051,1.352-0.027,2.25,0.16c1.224,0.255,3.106,0.471,5.262,1.354c0.085,0.035,0.319,0.181,0.412,0.328
	c0.19,0.303,0.503,0.918,0.647,1.854h0.289h0.563h0.289c0.144-0.936,0.457-1.551,0.647-1.854c0.093-0.147,0.327-0.293,0.412-0.328
	c2.156-0.883,4.038-1.099,5.262-1.354c0.898-0.188,1.729-0.211,2.25-0.16c2.237,0.219,1.446,1.621,1.446,1.621
	c-0.991,1.629-2.731,3.345-3.797,4.321c-0.547,0.501-1.011,1.429-1.065,1.776c-0.531,3.447-1.459,9.102-1.459,9.102
	c0.503,0.678,0.798,1.035,1.105,1.307c0.847,0.822,1.185,1.105,1.269,1.197c1.393,1.535,6.683,0.046,6.683,0.046
	c-0.268-3.783,0.333-8.165,0.333-8.165c0.107-5.893,3.092-8.26,3.092-8.26c1.26-1.238,1.887-2.73,2.19-4.047
	c0.418-1.815,0.22-3.292,0.22-3.292s-0.2,1.39-0.939,2.668c-0.456,0.788-1.116,1.533-2.061,1.886
	c-0.383,0.143-1.789,0.214-2.464-0.107c-1.224-0.583-3.095-2.127-3.268-4.232l-0.412-3.168c0,0-0.128-0.515-0.313-0.594
	c-0.329-0.142-1.352-0.43-3.594-1c0,0-1.226-0.394-3.021-0.702c-0.568-0.098-1.01-0.063-1.182-0.454
	c-0.232-0.528-0.305-0.679-0.547-1.391C20.965,5.546,20.147,2.115,20.137,1.391"/>
</svg>
